# xmcd
# Track frame offsets:
# 150
# 10749
# 20247
# 31887
# 42615
# 55201
# 67088
# 76070
# 87240
# 98358
# 108711
# 117333
# 129185
# 139958
# 151784
# 164865
# 176207
# 187626
# 198082
# 210907
# 222304
# 233034
# 242921
# 253461
# 263847
# 275266
# 286357
# 296309
#
# Disc length: 4087 seconds
# Revision: 0
# Processed by: cddbd v1.5.2PL0 Copyright (c) Steve Scherf et al.
# Submitted via: VisiTrax 2.11.3.279 - For more info visit www.synapsa.com
#
DISCID=930ff51c
DTITLE=Cline, Patsy - Just Out of Reach - 2 Early Albums Plus Singles 1955-19
DTITLE=61 (Disk 2 of 2)
DYEAR=2012
DGENRE=Country - Compilation
TTITLE0=I Love You, Honey
TTITLE1=Come On In (And Make YOurself At Home)
TTITLE2=I've Loved And Lost Again
TTITLE3=Stop Look And Listen
TTITLE4=Poor Man's Roses (Or A Rich Man's Gold)
TTITLE5=Today Tomorrow And Forever
TTITLE6=Try Again
TTITLE7=A Stranger In My Arms
TTITLE8=Stop the World (And Let Me Off)
TTITLE9=Walking Dream
TTITLE10=Come On In
TTITLE11=Let the Teardrops Fall
TTITLE12=I Can See An Angel Walking
TTITLE13=Never No More
TTITLE14=If I Could See the World
TTITLE15=Just Out of Reach (Of Your Two Empty Arms)
TTITLE16=Dear God
TTITLE17=He Will Do For You
TTITLE18=Yes I Understand
TTITLE19=Cry Not For Me
TTITLE20=Gotta Lot of Rhythm In My Soul
TTITLE21=I'm Blue Again
TTITLE22=Lovesick Blues
TTITLE23=How Can I Face Tomorrow
TTITLE24=Crazy Dreams
TTITLE25=There He Goes
TTITLE26=Lovin' In Vain
TTITLE27=Who Can I Count On
EXTD=The Coral and Decca Singles 25-28 and disk 2. Disk 1 had "Patsy Cline" Dec
EXTD=ca DL 8611 C. 1957 Tracks 1-12 and "Showcase" Decca DL 742202 1961 and Po
EXTD=p Albums No. 73 1962 Tracks 13-24.\nJasmine JASMCD 3619
EXTT0=
EXTT1=
EXTT2=
EXTT3=
EXTT4=
EXTT5=
EXTT6=
EXTT7=
EXTT8=
EXTT9=
EXTT10=
EXTT11=
EXTT12=
EXTT13=
EXTT14=
EXTT15=
EXTT16=
EXTT17=
EXTT18=
EXTT19=
EXTT20=
EXTT21=
EXTT22=
EXTT23=
EXTT24=
EXTT25=
EXTT26=
EXTT27=
PLAYORDER=
